<svg version="1.2" xmlns="http://www.w3.org/2000/svg" viewBox="0 0 945 945" width="945" height="945">
	<style>
		.s0 { fill: #ffffff } 
		.s1 { fill: #eaeaea } 
	</style>
	<g id="Pasta 1">
		<g id="Pasta 2">
			<path id="Background" fill-rule="evenodd" class="s0" d="m244.48 236v365.73h-36.48v-365.73z"/>
			<path id="Layer 1" fill-rule="evenodd" class="s0" d="m317.44 236v160.52h-36.48v-160.52z"/>
			<path id="Layer 1 copy 7" fill-rule="evenodd" class="s0" d="m317.44 433.09v168.64h-36.48v-168.64z"/>
			<path id="Layer 1 copy" fill-rule="evenodd" class="s0" d="m426.89 236v160.52h-36.48v-160.52z"/>
			<path id="Layer 1 copy 8" fill-rule="evenodd" class="s0" d="m424.86 433.09v168.64h-36.48v-168.64z"/>
			<path id="Layer 1 copy 2" fill-rule="evenodd" class="s0" d="m499.85 236v365.73h-36.48v-365.73z"/>
			<path id="Layer 1 copy 3" fill-rule="evenodd" class="s0" d="m572.82 236v365.73h-36.49v-365.73z"/>
			<path id="Layer 1 copy 4" fill-rule="evenodd" class="s0" d="m645.78 236v292.59h-36.48v-292.59z"/>
			<path id="Layer 1 copy 9" fill-rule="evenodd" class="s0" d="m422.1 469.66h-136.1v-36.57h136.1z"/>
			<path id="Layer 1 copy 11" fill-rule="evenodd" class="s0" d="m736.98 603.76h-200.65v-36.57h200.65z"/>
			<path id="Layer 1 copy 12" fill-rule="evenodd" class="s0" d="m736.98 528.59h-127.68v-36.58h127.68z"/>
			<path id="Layer 1 copy 10" fill-rule="evenodd" class="s0" d="m420.1 396.52h-136.1v-36.57h136.1z"/>
		</g>
	</g>
	<path id="Forma 1" class="s1" d=""/>
</svg>