<svg version="1.2" xmlns="http://www.w3.org/2000/svg" viewBox="0 0 821 570" width="821" height="570">
	<style>
		.s0 { fill: #ffffff } 
	</style>
	<g id="Pasta 1">
		<path id="Background" fill-rule="evenodd" class="s0" d="m66.9 7v549.99h-54.9v-549.99z"/>
		<path id="Layer 1" fill-rule="evenodd" class="s0" d="m176.7 7v241.38h-54.9v-241.38z"/>
		<path id="Layer 1 copy 7" fill-rule="evenodd" class="s0" d="m176.7 303.38v253.61h-54.9v-253.61z"/>
		<path id="Layer 1 copy" fill-rule="evenodd" class="s0" d="m341.41 7v241.38h-54.9v-241.38z"/>
		<path id="Layer 1 copy 8" fill-rule="evenodd" class="s0" d="m338.36 303.38v253.61h-54.9v-253.61z"/>
		<path id="Layer 1 copy 2" fill-rule="evenodd" class="s0" d="m451.21 7v549.99h-54.9v-549.99z"/>
		<path id="Layer 1 copy 3" fill-rule="evenodd" class="s0" d="m561.01 7v549.99h-54.9v-549.99z"/>
		<path id="Layer 1 copy 4" fill-rule="evenodd" class="s0" d="m670.81 7v439.99h-54.9v-439.99z"/>
		<path id="Layer 1 copy 9" fill-rule="evenodd" class="s0" d="m334.2 358.38h-204.82v-55h204.82z"/>
		<path id="Layer 1 copy 11" fill-rule="evenodd" class="s0" d="m808.07 560.04h-301.96v-55h301.96z"/>
		<path id="Layer 1 copy 12" fill-rule="evenodd" class="s0" d="m808.07 446.99h-192.16v-55h192.16z"/>
		<path id="Layer 1 copy 10" fill-rule="evenodd" class="s0" d="m331.19 248.39h-204.82v-54.99h204.82z"/>
	</g>
</svg>