<svg version="1.2" xmlns="http://www.w3.org/2000/svg" viewBox="0 0 821 570" width="821" height="570">
	<style>
		.s0 { fill: #ffffff } 
	</style>
	<g id="Pasta 1">
		<path id="Background" fill-rule="evenodd" class="s0" d="m110.16 31v482.48h-48.16v-482.48z"/>
		<path id="Layer 1" fill-rule="evenodd" class="s0" d="m206.48 31v211.75h-48.16v-211.75z"/>
		<path id="Layer 1 copy 7" fill-rule="evenodd" class="s0" d="m206.48 291v222.48h-48.16v-222.48z"/>
		<path id="Layer 1 copy" fill-rule="evenodd" class="s0" d="m350.95 31v211.75h-48.16v-211.75z"/>
		<path id="Layer 1 copy 8" fill-rule="evenodd" class="s0" d="m348.28 291v222.48h-48.16v-222.48z"/>
		<path id="Layer 1 copy 2" fill-rule="evenodd" class="s0" d="m447.27 31v482.48h-48.16v-482.48z"/>
		<path id="Layer 1 copy 3" fill-rule="evenodd" class="s0" d="m543.59 31v482.48h-48.16v-482.48z"/>
		<path id="Layer 1 copy 4" fill-rule="evenodd" class="s0" d="m639.91 31v385.98h-48.16v-385.98z"/>
		<path id="Layer 1 copy 9" fill-rule="evenodd" class="s0" d="m344.63 339.25h-179.66v-48.25h179.66z"/>
		<path id="Layer 1 copy 11" fill-rule="evenodd" class="s0" d="m760.3 516.16h-264.87v-48.25h264.87z"/>
		<path id="Layer 1 copy 12" fill-rule="evenodd" class="s0" d="m760.3 416.98h-168.55v-48.24h168.55z"/>
		<path id="Layer 1 copy 10" fill-rule="evenodd" class="s0" d="m341.99 242.76h-179.66v-48.24h179.66z"/>
	</g>
</svg>